<mxfile host="Electron" agent="Mozilla/5.0 (Windows NT 10.0; Win64; x64) AppleWebKit/537.36 (KHTML, like Gecko) draw.io/27.0.5 Chrome/134.0.6998.205 Electron/35.3.0 Safari/537.36" version="27.0.5">
  <diagram id="C5RBs43oDa-KdzZeNtuy" name="Page-1">
    <mxGraphModel dx="1426" dy="849" grid="1" gridSize="10" guides="1" tooltips="1" connect="1" arrows="1" fold="1" page="1" pageScale="1" pageWidth="827" pageHeight="1169" math="0" shadow="0">
      <root>
        <mxCell id="WIyWlLk6GJQsqaUBKTNV-0" />
        <mxCell id="WIyWlLk6GJQsqaUBKTNV-1" parent="WIyWlLk6GJQsqaUBKTNV-0" />
        <mxCell id="6eRX1Ib8_wsgTUHaT6mm-4" value="Mesa" style="swimlane;fontStyle=1;align=center;verticalAlign=top;childLayout=stackLayout;horizontal=1;startSize=26;horizontalStack=0;resizeParent=1;resizeParentMax=0;resizeLast=0;collapsible=1;marginBottom=0;whiteSpace=wrap;html=1;" parent="WIyWlLk6GJQsqaUBKTNV-1" vertex="1">
          <mxGeometry x="90" y="140" width="190" height="294" as="geometry" />
        </mxCell>
        <mxCell id="6eRX1Ib8_wsgTUHaT6mm-5" value="- nro_mesa : int" style="text;strokeColor=none;fillColor=none;align=left;verticalAlign=top;spacingLeft=4;spacingRight=4;overflow=hidden;rotatable=0;points=[[0,0.5],[1,0.5]];portConstraint=eastwest;whiteSpace=wrap;html=1;" parent="6eRX1Ib8_wsgTUHaT6mm-4" vertex="1">
          <mxGeometry y="26" width="190" height="26" as="geometry" />
        </mxCell>
        <mxCell id="6eRX1Ib8_wsgTUHaT6mm-8" value="- can_sillas : int" style="text;strokeColor=none;fillColor=none;align=left;verticalAlign=top;spacingLeft=4;spacingRight=4;overflow=hidden;rotatable=0;points=[[0,0.5],[1,0.5]];portConstraint=eastwest;whiteSpace=wrap;html=1;" parent="6eRX1Ib8_wsgTUHaT6mm-4" vertex="1">
          <mxGeometry y="52" width="190" height="26" as="geometry" />
        </mxCell>
        <mxCell id="6eRX1Ib8_wsgTUHaT6mm-9" value="- ubic : int" style="text;strokeColor=none;fillColor=none;align=left;verticalAlign=top;spacingLeft=4;spacingRight=4;overflow=hidden;rotatable=0;points=[[0,0.5],[1,0.5]];portConstraint=eastwest;whiteSpace=wrap;html=1;" parent="6eRX1Ib8_wsgTUHaT6mm-4" vertex="1">
          <mxGeometry y="78" width="190" height="26" as="geometry" />
        </mxCell>
        <mxCell id="6eRX1Ib8_wsgTUHaT6mm-10" value="- desc : char[30]" style="text;strokeColor=none;fillColor=none;align=left;verticalAlign=top;spacingLeft=4;spacingRight=4;overflow=hidden;rotatable=0;points=[[0,0.5],[1,0.5]];portConstraint=eastwest;whiteSpace=wrap;html=1;" parent="6eRX1Ib8_wsgTUHaT6mm-4" vertex="1">
          <mxGeometry y="104" width="190" height="26" as="geometry" />
        </mxCell>
        <mxCell id="Ps59hAE3gjejq4ruwPgK-1" value="- estado : bool" style="text;strokeColor=none;fillColor=none;align=left;verticalAlign=top;spacingLeft=4;spacingRight=4;overflow=hidden;rotatable=0;points=[[0,0.5],[1,0.5]];portConstraint=eastwest;whiteSpace=wrap;html=1;" parent="6eRX1Ib8_wsgTUHaT6mm-4" vertex="1">
          <mxGeometry y="130" width="190" height="26" as="geometry" />
        </mxCell>
        <mxCell id="6eRX1Ib8_wsgTUHaT6mm-6" value="" style="line;strokeWidth=1;fillColor=none;align=left;verticalAlign=middle;spacingTop=-1;spacingLeft=3;spacingRight=3;rotatable=0;labelPosition=right;points=[];portConstraint=eastwest;strokeColor=inherit;" parent="6eRX1Ib8_wsgTUHaT6mm-4" vertex="1">
          <mxGeometry y="156" width="190" height="8" as="geometry" />
        </mxCell>
        <mxCell id="ePLijicrCCfvKew2fzSt-21" value="+ Mesa()" style="text;strokeColor=none;fillColor=none;align=left;verticalAlign=top;spacingLeft=4;spacingRight=4;overflow=hidden;rotatable=0;points=[[0,0.5],[1,0.5]];portConstraint=eastwest;whiteSpace=wrap;html=1;" parent="6eRX1Ib8_wsgTUHaT6mm-4" vertex="1">
          <mxGeometry y="164" width="190" height="26" as="geometry" />
        </mxCell>
        <mxCell id="6eRX1Ib8_wsgTUHaT6mm-12" value="+ Mesa(int, int, int, char[20])" style="text;strokeColor=none;fillColor=none;align=left;verticalAlign=top;spacingLeft=4;spacingRight=4;overflow=hidden;rotatable=0;points=[[0,0.5],[1,0.5]];portConstraint=eastwest;whiteSpace=wrap;html=1;" parent="6eRX1Ib8_wsgTUHaT6mm-4" vertex="1">
          <mxGeometry y="190" width="190" height="26" as="geometry" />
        </mxCell>
        <mxCell id="6eRX1Ib8_wsgTUHaT6mm-7" value="+ Mesa(int, int, int, std::string)" style="text;strokeColor=none;fillColor=none;align=left;verticalAlign=top;spacingLeft=4;spacingRight=4;overflow=hidden;rotatable=0;points=[[0,0.5],[1,0.5]];portConstraint=eastwest;whiteSpace=wrap;html=1;" parent="6eRX1Ib8_wsgTUHaT6mm-4" vertex="1">
          <mxGeometry y="216" width="190" height="26" as="geometry" />
        </mxCell>
        <mxCell id="ePLijicrCCfvKew2fzSt-29" value="+ set_desc(std::string) : void" style="text;strokeColor=none;fillColor=none;align=left;verticalAlign=top;spacingLeft=4;spacingRight=4;overflow=hidden;rotatable=0;points=[[0,0.5],[1,0.5]];portConstraint=eastwest;whiteSpace=wrap;html=1;" parent="6eRX1Ib8_wsgTUHaT6mm-4" vertex="1">
          <mxGeometry y="242" width="190" height="26" as="geometry" />
        </mxCell>
        <mxCell id="ePLijicrCCfvKew2fzSt-28" value="+ get_desc() : std::string" style="text;strokeColor=none;fillColor=none;align=left;verticalAlign=top;spacingLeft=4;spacingRight=4;overflow=hidden;rotatable=0;points=[[0,0.5],[1,0.5]];portConstraint=eastwest;whiteSpace=wrap;html=1;" parent="6eRX1Ib8_wsgTUHaT6mm-4" vertex="1">
          <mxGeometry y="268" width="190" height="26" as="geometry" />
        </mxCell>
        <mxCell id="vuBcx6geqL2GB_FxBbe_-4" style="edgeStyle=orthogonalEdgeStyle;rounded=0;orthogonalLoop=1;jettySize=auto;html=1;entryX=0;entryY=0.5;entryDx=0;entryDy=0;endArrow=none;startFill=0;exitX=0;exitY=0;exitDx=165;exitDy=0;exitPerimeter=0;" parent="WIyWlLk6GJQsqaUBKTNV-1" source="6eRX1Ib8_wsgTUHaT6mm-14" target="ePLijicrCCfvKew2fzSt-27" edge="1">
          <mxGeometry relative="1" as="geometry">
            <Array as="points">
              <mxPoint x="465" y="496" />
            </Array>
          </mxGeometry>
        </mxCell>
        <mxCell id="6eRX1Ib8_wsgTUHaT6mm-14" value="getters y setters genÃ©ricos omitidos" style="shape=note;size=20;whiteSpace=wrap;html=1;" parent="WIyWlLk6GJQsqaUBKTNV-1" vertex="1">
          <mxGeometry x="300" y="518" width="185" height="50" as="geometry" />
        </mxCell>
        <mxCell id="Ps59hAE3gjejq4ruwPgK-4" style="edgeStyle=orthogonalEdgeStyle;rounded=0;orthogonalLoop=1;jettySize=auto;html=1;endArrow=none;startFill=0;" parent="WIyWlLk6GJQsqaUBKTNV-1" source="ePLijicrCCfvKew2fzSt-0" target="6eRX1Ib8_wsgTUHaT6mm-14" edge="1">
          <mxGeometry relative="1" as="geometry" />
        </mxCell>
        <mxCell id="ePLijicrCCfvKew2fzSt-0" value="Servicios" style="swimlane;fontStyle=1;align=center;verticalAlign=top;childLayout=stackLayout;horizontal=1;startSize=26;horizontalStack=0;resizeParent=1;resizeParentMax=0;resizeLast=0;collapsible=1;marginBottom=0;whiteSpace=wrap;html=1;" parent="WIyWlLk6GJQsqaUBKTNV-1" vertex="1">
          <mxGeometry x="300" y="140" width="185" height="346" as="geometry" />
        </mxCell>
        <mxCell id="EA_2zDiLs2bZp8I0szOn-28" value="- nro_factura : int" style="text;strokeColor=none;fillColor=none;align=left;verticalAlign=top;spacingLeft=4;spacingRight=4;overflow=hidden;rotatable=0;points=[[0,0.5],[1,0.5]];portConstraint=eastwest;whiteSpace=wrap;html=1;" parent="ePLijicrCCfvKew2fzSt-0" vertex="1">
          <mxGeometry y="26" width="185" height="26" as="geometry" />
        </mxCell>
        <mxCell id="ePLijicrCCfvKew2fzSt-1" value="- nro_mesa : int" style="text;strokeColor=none;fillColor=none;align=left;verticalAlign=top;spacingLeft=4;spacingRight=4;overflow=hidden;rotatable=0;points=[[0,0.5],[1,0.5]];portConstraint=eastwest;whiteSpace=wrap;html=1;" parent="ePLijicrCCfvKew2fzSt-0" vertex="1">
          <mxGeometry y="52" width="185" height="26" as="geometry" />
        </mxCell>
        <mxCell id="ePLijicrCCfvKew2fzSt-4" value="- id_mozo : int" style="text;strokeColor=none;fillColor=none;align=left;verticalAlign=top;spacingLeft=4;spacingRight=4;overflow=hidden;rotatable=0;points=[[0,0.5],[1,0.5]];portConstraint=eastwest;whiteSpace=wrap;html=1;" parent="ePLijicrCCfvKew2fzSt-0" vertex="1">
          <mxGeometry y="78" width="185" height="26" as="geometry" />
        </mxCell>
        <mxCell id="ePLijicrCCfvKew2fzSt-5" value="- fecha_serv : Fecha" style="text;strokeColor=none;fillColor=none;align=left;verticalAlign=top;spacingLeft=4;spacingRight=4;overflow=hidden;rotatable=0;points=[[0,0.5],[1,0.5]];portConstraint=eastwest;whiteSpace=wrap;html=1;" parent="ePLijicrCCfvKew2fzSt-0" vertex="1">
          <mxGeometry y="104" width="185" height="26" as="geometry" />
        </mxCell>
        <mxCell id="ePLijicrCCfvKew2fzSt-6" value="- importe_serv : float" style="text;strokeColor=none;fillColor=none;align=left;verticalAlign=top;spacingLeft=4;spacingRight=4;overflow=hidden;rotatable=0;points=[[0,0.5],[1,0.5]];portConstraint=eastwest;whiteSpace=wrap;html=1;" parent="ePLijicrCCfvKew2fzSt-0" vertex="1">
          <mxGeometry y="130" width="185" height="26" as="geometry" />
        </mxCell>
        <mxCell id="ePLijicrCCfvKew2fzSt-7" value="- monto_abon : float" style="text;strokeColor=none;fillColor=none;align=left;verticalAlign=top;spacingLeft=4;spacingRight=4;overflow=hidden;rotatable=0;points=[[0,0.5],[1,0.5]];portConstraint=eastwest;whiteSpace=wrap;html=1;" parent="ePLijicrCCfvKew2fzSt-0" vertex="1">
          <mxGeometry y="156" width="185" height="26" as="geometry" />
        </mxCell>
        <mxCell id="Ps59hAE3gjejq4ruwPgK-2" value="- estado : bool" style="text;strokeColor=none;fillColor=none;align=left;verticalAlign=top;spacingLeft=4;spacingRight=4;overflow=hidden;rotatable=0;points=[[0,0.5],[1,0.5]];portConstraint=eastwest;whiteSpace=wrap;html=1;" parent="ePLijicrCCfvKew2fzSt-0" vertex="1">
          <mxGeometry y="182" width="185" height="26" as="geometry" />
        </mxCell>
        <mxCell id="ePLijicrCCfvKew2fzSt-2" value="" style="line;strokeWidth=1;fillColor=none;align=left;verticalAlign=middle;spacingTop=-1;spacingLeft=3;spacingRight=3;rotatable=0;labelPosition=right;points=[];portConstraint=eastwest;strokeColor=inherit;" parent="ePLijicrCCfvKew2fzSt-0" vertex="1">
          <mxGeometry y="208" width="185" height="8" as="geometry" />
        </mxCell>
        <mxCell id="ePLijicrCCfvKew2fzSt-3" value="+ Servicio()" style="text;strokeColor=none;fillColor=none;align=left;verticalAlign=top;spacingLeft=4;spacingRight=4;overflow=hidden;rotatable=0;points=[[0,0.5],[1,0.5]];portConstraint=eastwest;whiteSpace=wrap;html=1;" parent="ePLijicrCCfvKew2fzSt-0" vertex="1">
          <mxGeometry y="216" width="185" height="26" as="geometry" />
        </mxCell>
        <mxCell id="ePLijicrCCfvKew2fzSt-8" value="+ Servicio(int, int, int, Fecha, float, foat)" style="text;strokeColor=none;fillColor=none;align=left;verticalAlign=top;spacingLeft=4;spacingRight=4;overflow=hidden;rotatable=0;points=[[0,0.5],[1,0.5]];portConstraint=eastwest;whiteSpace=wrap;html=1;" parent="ePLijicrCCfvKew2fzSt-0" vertex="1">
          <mxGeometry y="242" width="185" height="34" as="geometry" />
        </mxCell>
        <mxCell id="ePLijicrCCfvKew2fzSt-26" value="+ Servicio(int, Mesa, Mozo, Fecha, float, float)" style="text;strokeColor=none;fillColor=none;align=left;verticalAlign=top;spacingLeft=4;spacingRight=4;overflow=hidden;rotatable=0;points=[[0,0.5],[1,0.5]];portConstraint=eastwest;whiteSpace=wrap;html=1;" parent="ePLijicrCCfvKew2fzSt-0" vertex="1">
          <mxGeometry y="276" width="185" height="44" as="geometry" />
        </mxCell>
        <mxCell id="vuBcx6geqL2GB_FxBbe_-7" value="+ get_propina(): float&amp;nbsp;" style="text;strokeColor=none;fillColor=none;align=left;verticalAlign=top;spacingLeft=4;spacingRight=4;overflow=hidden;rotatable=0;points=[[0,0.5],[1,0.5]];portConstraint=eastwest;whiteSpace=wrap;html=1;" parent="ePLijicrCCfvKew2fzSt-0" vertex="1">
          <mxGeometry y="320" width="185" height="26" as="geometry" />
        </mxCell>
        <mxCell id="ePLijicrCCfvKew2fzSt-10" value="Mozo" style="swimlane;fontStyle=1;align=center;verticalAlign=top;childLayout=stackLayout;horizontal=1;startSize=26;horizontalStack=0;resizeParent=1;resizeParentMax=0;resizeLast=0;collapsible=1;marginBottom=0;whiteSpace=wrap;html=1;" parent="WIyWlLk6GJQsqaUBKTNV-1" vertex="1">
          <mxGeometry x="510" y="140" width="240" height="532" as="geometry" />
        </mxCell>
        <mxCell id="ePLijicrCCfvKew2fzSt-11" value="- dni : int" style="text;strokeColor=none;fillColor=none;align=left;verticalAlign=top;spacingLeft=4;spacingRight=4;overflow=hidden;rotatable=0;points=[[0,0.5],[1,0.5]];portConstraint=eastwest;whiteSpace=wrap;html=1;" parent="ePLijicrCCfvKew2fzSt-10" vertex="1">
          <mxGeometry y="26" width="240" height="26" as="geometry" />
        </mxCell>
        <mxCell id="ePLijicrCCfvKew2fzSt-14" value="- nombre : char[20]" style="text;strokeColor=none;fillColor=none;align=left;verticalAlign=top;spacingLeft=4;spacingRight=4;overflow=hidden;rotatable=0;points=[[0,0.5],[1,0.5]];portConstraint=eastwest;whiteSpace=wrap;html=1;" parent="ePLijicrCCfvKew2fzSt-10" vertex="1">
          <mxGeometry y="52" width="240" height="26" as="geometry" />
        </mxCell>
        <mxCell id="ePLijicrCCfvKew2fzSt-15" value="- apellido : char[30]" style="text;strokeColor=none;fillColor=none;align=left;verticalAlign=top;spacingLeft=4;spacingRight=4;overflow=hidden;rotatable=0;points=[[0,0.5],[1,0.5]];portConstraint=eastwest;whiteSpace=wrap;html=1;" parent="ePLijicrCCfvKew2fzSt-10" vertex="1">
          <mxGeometry y="78" width="240" height="26" as="geometry" />
        </mxCell>
        <mxCell id="ePLijicrCCfvKew2fzSt-16" value="- nro_telef : int" style="text;strokeColor=none;fillColor=none;align=left;verticalAlign=top;spacingLeft=4;spacingRight=4;overflow=hidden;rotatable=0;points=[[0,0.5],[1,0.5]];portConstraint=eastwest;whiteSpace=wrap;html=1;" parent="ePLijicrCCfvKew2fzSt-10" vertex="1">
          <mxGeometry y="104" width="240" height="26" as="geometry" />
        </mxCell>
        <mxCell id="ePLijicrCCfvKew2fzSt-17" value="- email : char[50]" style="text;strokeColor=none;fillColor=none;align=left;verticalAlign=top;spacingLeft=4;spacingRight=4;overflow=hidden;rotatable=0;points=[[0,0.5],[1,0.5]];portConstraint=eastwest;whiteSpace=wrap;html=1;" parent="ePLijicrCCfvKew2fzSt-10" vertex="1">
          <mxGeometry y="130" width="240" height="26" as="geometry" />
        </mxCell>
        <mxCell id="ePLijicrCCfvKew2fzSt-18" value="- fecha_naci : Fecha" style="text;strokeColor=none;fillColor=none;align=left;verticalAlign=top;spacingLeft=4;spacingRight=4;overflow=hidden;rotatable=0;points=[[0,0.5],[1,0.5]];portConstraint=eastwest;whiteSpace=wrap;html=1;" parent="ePLijicrCCfvKew2fzSt-10" vertex="1">
          <mxGeometry y="156" width="240" height="26" as="geometry" />
        </mxCell>
        <mxCell id="ePLijicrCCfvKew2fzSt-19" value="- turno : int" style="text;strokeColor=none;fillColor=none;align=left;verticalAlign=top;spacingLeft=4;spacingRight=4;overflow=hidden;rotatable=0;points=[[0,0.5],[1,0.5]];portConstraint=eastwest;whiteSpace=wrap;html=1;" parent="ePLijicrCCfvKew2fzSt-10" vertex="1">
          <mxGeometry y="182" width="240" height="26" as="geometry" />
        </mxCell>
        <mxCell id="ePLijicrCCfvKew2fzSt-20" value="- id_mozo : int" style="text;strokeColor=none;fillColor=none;align=left;verticalAlign=top;spacingLeft=4;spacingRight=4;overflow=hidden;rotatable=0;points=[[0,0.5],[1,0.5]];portConstraint=eastwest;whiteSpace=wrap;html=1;" parent="ePLijicrCCfvKew2fzSt-10" vertex="1">
          <mxGeometry y="208" width="240" height="26" as="geometry" />
        </mxCell>
        <mxCell id="Ps59hAE3gjejq4ruwPgK-0" value="- estado : bool" style="text;strokeColor=none;fillColor=none;align=left;verticalAlign=top;spacingLeft=4;spacingRight=4;overflow=hidden;rotatable=0;points=[[0,0.5],[1,0.5]];portConstraint=eastwest;whiteSpace=wrap;html=1;" parent="ePLijicrCCfvKew2fzSt-10" vertex="1">
          <mxGeometry y="234" width="240" height="26" as="geometry" />
        </mxCell>
        <mxCell id="ePLijicrCCfvKew2fzSt-12" value="" style="line;strokeWidth=1;fillColor=none;align=left;verticalAlign=middle;spacingTop=-1;spacingLeft=3;spacingRight=3;rotatable=0;labelPosition=right;points=[];portConstraint=eastwest;strokeColor=inherit;" parent="ePLijicrCCfvKew2fzSt-10" vertex="1">
          <mxGeometry y="260" width="240" height="8" as="geometry" />
        </mxCell>
        <mxCell id="ePLijicrCCfvKew2fzSt-13" value="+ Mozo()" style="text;strokeColor=none;fillColor=none;align=left;verticalAlign=top;spacingLeft=4;spacingRight=4;overflow=hidden;rotatable=0;points=[[0,0.5],[1,0.5]];portConstraint=eastwest;whiteSpace=wrap;html=1;" parent="ePLijicrCCfvKew2fzSt-10" vertex="1">
          <mxGeometry y="268" width="240" height="26" as="geometry" />
        </mxCell>
        <mxCell id="ePLijicrCCfvKew2fzSt-22" value="+ Mozo(int, char[20], char[30], int, char[50], int, int, int)" style="text;strokeColor=none;fillColor=none;align=left;verticalAlign=top;spacingLeft=4;spacingRight=4;overflow=hidden;rotatable=0;points=[[0,0.5],[1,0.5]];portConstraint=eastwest;whiteSpace=wrap;html=1;" parent="ePLijicrCCfvKew2fzSt-10" vertex="1">
          <mxGeometry y="294" width="240" height="42" as="geometry" />
        </mxCell>
        <mxCell id="ePLijicrCCfvKew2fzSt-27" value="+ Mozo(int, std::string, std::string, int, std::string, int, int, int)" style="text;strokeColor=none;fillColor=none;align=left;verticalAlign=top;spacingLeft=4;spacingRight=4;overflow=hidden;rotatable=0;points=[[0,0.5],[1,0.5]];portConstraint=eastwest;whiteSpace=wrap;html=1;" parent="ePLijicrCCfvKew2fzSt-10" vertex="1">
          <mxGeometry y="336" width="240" height="40" as="geometry" />
        </mxCell>
        <mxCell id="EA_2zDiLs2bZp8I0szOn-0" value="+ get_nombre() : std::string" style="text;strokeColor=none;fillColor=none;align=left;verticalAlign=top;spacingLeft=4;spacingRight=4;overflow=hidden;rotatable=0;points=[[0,0.5],[1,0.5]];portConstraint=eastwest;whiteSpace=wrap;html=1;" parent="ePLijicrCCfvKew2fzSt-10" vertex="1">
          <mxGeometry y="376" width="240" height="26" as="geometry" />
        </mxCell>
        <mxCell id="EA_2zDiLs2bZp8I0szOn-1" value="+ get_apellido() : std::string" style="text;strokeColor=none;fillColor=none;align=left;verticalAlign=top;spacingLeft=4;spacingRight=4;overflow=hidden;rotatable=0;points=[[0,0.5],[1,0.5]];portConstraint=eastwest;whiteSpace=wrap;html=1;" parent="ePLijicrCCfvKew2fzSt-10" vertex="1">
          <mxGeometry y="402" width="240" height="26" as="geometry" />
        </mxCell>
        <mxCell id="EA_2zDiLs2bZp8I0szOn-2" value="+ get_email() : std::string" style="text;strokeColor=none;fillColor=none;align=left;verticalAlign=top;spacingLeft=4;spacingRight=4;overflow=hidden;rotatable=0;points=[[0,0.5],[1,0.5]];portConstraint=eastwest;whiteSpace=wrap;html=1;" parent="ePLijicrCCfvKew2fzSt-10" vertex="1">
          <mxGeometry y="428" width="240" height="26" as="geometry" />
        </mxCell>
        <mxCell id="EA_2zDiLs2bZp8I0szOn-3" value="+ set_nombre(std::string) : void" style="text;strokeColor=none;fillColor=none;align=left;verticalAlign=top;spacingLeft=4;spacingRight=4;overflow=hidden;rotatable=0;points=[[0,0.5],[1,0.5]];portConstraint=eastwest;whiteSpace=wrap;html=1;" parent="ePLijicrCCfvKew2fzSt-10" vertex="1">
          <mxGeometry y="454" width="240" height="26" as="geometry" />
        </mxCell>
        <mxCell id="EA_2zDiLs2bZp8I0szOn-4" value="+ set_apellido(std::string) : void" style="text;strokeColor=none;fillColor=none;align=left;verticalAlign=top;spacingLeft=4;spacingRight=4;overflow=hidden;rotatable=0;points=[[0,0.5],[1,0.5]];portConstraint=eastwest;whiteSpace=wrap;html=1;" parent="ePLijicrCCfvKew2fzSt-10" vertex="1">
          <mxGeometry y="480" width="240" height="26" as="geometry" />
        </mxCell>
        <mxCell id="EA_2zDiLs2bZp8I0szOn-5" value="+ set_email(std::string) : void" style="text;strokeColor=none;fillColor=none;align=left;verticalAlign=top;spacingLeft=4;spacingRight=4;overflow=hidden;rotatable=0;points=[[0,0.5],[1,0.5]];portConstraint=eastwest;whiteSpace=wrap;html=1;" parent="ePLijicrCCfvKew2fzSt-10" vertex="1">
          <mxGeometry y="506" width="240" height="26" as="geometry" />
        </mxCell>
        <mxCell id="EA_2zDiLs2bZp8I0szOn-6" value="Fecha" style="swimlane;fontStyle=1;align=center;verticalAlign=top;childLayout=stackLayout;horizontal=1;startSize=26;horizontalStack=0;resizeParent=1;resizeParentMax=0;resizeLast=0;collapsible=1;marginBottom=0;whiteSpace=wrap;html=1;" parent="WIyWlLk6GJQsqaUBKTNV-1" vertex="1">
          <mxGeometry x="90" y="490" width="160" height="268" as="geometry" />
        </mxCell>
        <mxCell id="EA_2zDiLs2bZp8I0szOn-7" value="- dia : int" style="text;strokeColor=none;fillColor=none;align=left;verticalAlign=top;spacingLeft=4;spacingRight=4;overflow=hidden;rotatable=0;points=[[0,0.5],[1,0.5]];portConstraint=eastwest;whiteSpace=wrap;html=1;" parent="EA_2zDiLs2bZp8I0szOn-6" vertex="1">
          <mxGeometry y="26" width="160" height="26" as="geometry" />
        </mxCell>
        <mxCell id="EA_2zDiLs2bZp8I0szOn-10" value="- mes : int" style="text;strokeColor=none;fillColor=none;align=left;verticalAlign=top;spacingLeft=4;spacingRight=4;overflow=hidden;rotatable=0;points=[[0,0.5],[1,0.5]];portConstraint=eastwest;whiteSpace=wrap;html=1;" parent="EA_2zDiLs2bZp8I0szOn-6" vertex="1">
          <mxGeometry y="52" width="160" height="26" as="geometry" />
        </mxCell>
        <mxCell id="EA_2zDiLs2bZp8I0szOn-11" value="- anio : int" style="text;strokeColor=none;fillColor=none;align=left;verticalAlign=top;spacingLeft=4;spacingRight=4;overflow=hidden;rotatable=0;points=[[0,0.5],[1,0.5]];portConstraint=eastwest;whiteSpace=wrap;html=1;" parent="EA_2zDiLs2bZp8I0szOn-6" vertex="1">
          <mxGeometry y="78" width="160" height="26" as="geometry" />
        </mxCell>
        <mxCell id="EA_2zDiLs2bZp8I0szOn-8" value="" style="line;strokeWidth=1;fillColor=none;align=left;verticalAlign=middle;spacingTop=-1;spacingLeft=3;spacingRight=3;rotatable=0;labelPosition=right;points=[];portConstraint=eastwest;strokeColor=inherit;" parent="EA_2zDiLs2bZp8I0szOn-6" vertex="1">
          <mxGeometry y="104" width="160" height="8" as="geometry" />
        </mxCell>
        <mxCell id="EA_2zDiLs2bZp8I0szOn-9" value="+ Fecha()" style="text;strokeColor=none;fillColor=none;align=left;verticalAlign=top;spacingLeft=4;spacingRight=4;overflow=hidden;rotatable=0;points=[[0,0.5],[1,0.5]];portConstraint=eastwest;whiteSpace=wrap;html=1;" parent="EA_2zDiLs2bZp8I0szOn-6" vertex="1">
          <mxGeometry y="112" width="160" height="26" as="geometry" />
        </mxCell>
        <mxCell id="EA_2zDiLs2bZp8I0szOn-12" value="+ Fecha(int, int ,int)" style="text;strokeColor=none;fillColor=none;align=left;verticalAlign=top;spacingLeft=4;spacingRight=4;overflow=hidden;rotatable=0;points=[[0,0.5],[1,0.5]];portConstraint=eastwest;whiteSpace=wrap;html=1;" parent="EA_2zDiLs2bZp8I0szOn-6" vertex="1">
          <mxGeometry y="138" width="160" height="26" as="geometry" />
        </mxCell>
        <mxCell id="vuBcx6geqL2GB_FxBbe_-3" value="+ Fecha(&amp;amp;Fecha)" style="text;strokeColor=none;fillColor=none;align=left;verticalAlign=top;spacingLeft=4;spacingRight=4;overflow=hidden;rotatable=0;points=[[0,0.5],[1,0.5]];portConstraint=eastwest;whiteSpace=wrap;html=1;" parent="EA_2zDiLs2bZp8I0szOn-6" vertex="1">
          <mxGeometry y="164" width="160" height="26" as="geometry" />
        </mxCell>
        <mxCell id="vuBcx6geqL2GB_FxBbe_-0" value="+ get_str() : std::string" style="text;strokeColor=none;fillColor=none;align=left;verticalAlign=top;spacingLeft=4;spacingRight=4;overflow=hidden;rotatable=0;points=[[0,0.5],[1,0.5]];portConstraint=eastwest;whiteSpace=wrap;html=1;" parent="EA_2zDiLs2bZp8I0szOn-6" vertex="1">
          <mxGeometry y="190" width="160" height="26" as="geometry" />
        </mxCell>
        <mxCell id="vuBcx6geqL2GB_FxBbe_-8" value="+ copiar(Fecha *): void" style="text;strokeColor=none;fillColor=none;align=left;verticalAlign=top;spacingLeft=4;spacingRight=4;overflow=hidden;rotatable=0;points=[[0,0.5],[1,0.5]];portConstraint=eastwest;whiteSpace=wrap;html=1;" parent="EA_2zDiLs2bZp8I0szOn-6" vertex="1">
          <mxGeometry y="216" width="160" height="26" as="geometry" />
        </mxCell>
        <mxCell id="j158cpId6UVIuKhUc8E8-0" value="+ comparar(Fecha): int" style="text;strokeColor=none;fillColor=none;align=left;verticalAlign=top;spacingLeft=4;spacingRight=4;overflow=hidden;rotatable=0;points=[[0,0.5],[1,0.5]];portConstraint=eastwest;whiteSpace=wrap;html=1;" parent="EA_2zDiLs2bZp8I0szOn-6" vertex="1">
          <mxGeometry y="242" width="160" height="26" as="geometry" />
        </mxCell>
        <mxCell id="vuBcx6geqL2GB_FxBbe_-5" style="edgeStyle=orthogonalEdgeStyle;rounded=0;orthogonalLoop=1;jettySize=auto;html=1;entryX=0;entryY=0;entryDx=0;entryDy=0;entryPerimeter=0;endArrow=none;startFill=0;" parent="WIyWlLk6GJQsqaUBKTNV-1" source="6eRX1Ib8_wsgTUHaT6mm-4" target="6eRX1Ib8_wsgTUHaT6mm-14" edge="1">
          <mxGeometry relative="1" as="geometry">
            <Array as="points">
              <mxPoint x="180" y="470" />
              <mxPoint x="280" y="470" />
              <mxPoint x="280" y="518" />
            </Array>
          </mxGeometry>
        </mxCell>
        <mxCell id="vuBcx6geqL2GB_FxBbe_-6" style="edgeStyle=orthogonalEdgeStyle;rounded=0;orthogonalLoop=1;jettySize=auto;html=1;entryX=0;entryY=0.5;entryDx=0;entryDy=0;entryPerimeter=0;endArrow=none;startFill=0;exitX=1;exitY=0.5;exitDx=0;exitDy=0;" parent="WIyWlLk6GJQsqaUBKTNV-1" source="EA_2zDiLs2bZp8I0szOn-10" target="6eRX1Ib8_wsgTUHaT6mm-14" edge="1">
          <mxGeometry relative="1" as="geometry">
            <Array as="points">
              <mxPoint x="300" y="555" />
            </Array>
          </mxGeometry>
        </mxCell>
        <mxCell id="j158cpId6UVIuKhUc8E8-29" style="edgeStyle=orthogonalEdgeStyle;rounded=0;orthogonalLoop=1;jettySize=auto;html=1;entryX=0.25;entryY=0;entryDx=0;entryDy=0;endArrow=none;startFill=0;startArrow=block;startSize=14;" parent="WIyWlLk6GJQsqaUBKTNV-1" source="j158cpId6UVIuKhUc8E8-1" target="j158cpId6UVIuKhUc8E8-17" edge="1">
          <mxGeometry relative="1" as="geometry">
            <Array as="points">
              <mxPoint x="393" y="800" />
            </Array>
          </mxGeometry>
        </mxCell>
        <mxCell id="j158cpId6UVIuKhUc8E8-31" style="edgeStyle=orthogonalEdgeStyle;rounded=0;orthogonalLoop=1;jettySize=auto;html=1;endArrow=none;startFill=0;" parent="WIyWlLk6GJQsqaUBKTNV-1" source="j158cpId6UVIuKhUc8E8-1" target="6eRX1Ib8_wsgTUHaT6mm-14" edge="1">
          <mxGeometry relative="1" as="geometry">
            <Array as="points">
              <mxPoint x="420" y="570" />
              <mxPoint x="420" y="570" />
            </Array>
          </mxGeometry>
        </mxCell>
        <mxCell id="j158cpId6UVIuKhUc8E8-1" value="Archivo" style="swimlane;fontStyle=1;align=center;verticalAlign=top;childLayout=stackLayout;horizontal=1;startSize=26;horizontalStack=0;resizeParent=1;resizeParentMax=0;resizeLast=0;collapsible=1;marginBottom=0;whiteSpace=wrap;html=1;" parent="WIyWlLk6GJQsqaUBKTNV-1" vertex="1">
          <mxGeometry x="312.5" y="600" width="160" height="112" as="geometry" />
        </mxCell>
        <mxCell id="j158cpId6UVIuKhUc8E8-2" value="- direccion : std::string" style="text;strokeColor=none;fillColor=none;align=left;verticalAlign=top;spacingLeft=4;spacingRight=4;overflow=hidden;rotatable=0;points=[[0,0.5],[1,0.5]];portConstraint=eastwest;whiteSpace=wrap;html=1;" parent="j158cpId6UVIuKhUc8E8-1" vertex="1">
          <mxGeometry y="26" width="160" height="26" as="geometry" />
        </mxCell>
        <mxCell id="j158cpId6UVIuKhUc8E8-5" value="- tam_reg : int" style="text;strokeColor=none;fillColor=none;align=left;verticalAlign=top;spacingLeft=4;spacingRight=4;overflow=hidden;rotatable=0;points=[[0,0.5],[1,0.5]];portConstraint=eastwest;whiteSpace=wrap;html=1;" parent="j158cpId6UVIuKhUc8E8-1" vertex="1">
          <mxGeometry y="52" width="160" height="26" as="geometry" />
        </mxCell>
        <mxCell id="j158cpId6UVIuKhUc8E8-3" value="" style="line;strokeWidth=1;fillColor=none;align=left;verticalAlign=middle;spacingTop=-1;spacingLeft=3;spacingRight=3;rotatable=0;labelPosition=right;points=[];portConstraint=eastwest;strokeColor=inherit;" parent="j158cpId6UVIuKhUc8E8-1" vertex="1">
          <mxGeometry y="78" width="160" height="8" as="geometry" />
        </mxCell>
        <mxCell id="j158cpId6UVIuKhUc8E8-4" value="+ contar_regs(): int" style="text;strokeColor=none;fillColor=none;align=left;verticalAlign=top;spacingLeft=4;spacingRight=4;overflow=hidden;rotatable=0;points=[[0,0.5],[1,0.5]];portConstraint=eastwest;whiteSpace=wrap;html=1;" parent="j158cpId6UVIuKhUc8E8-1" vertex="1">
          <mxGeometry y="86" width="160" height="26" as="geometry" />
        </mxCell>
        <mxCell id="j158cpId6UVIuKhUc8E8-27" style="edgeStyle=orthogonalEdgeStyle;rounded=0;orthogonalLoop=1;jettySize=auto;html=1;entryX=0;entryY=0.5;entryDx=0;entryDy=0;endArrow=block;endFill=0;endSize=14;" parent="WIyWlLk6GJQsqaUBKTNV-1" source="j158cpId6UVIuKhUc8E8-11" target="j158cpId6UVIuKhUc8E8-4" edge="1">
          <mxGeometry relative="1" as="geometry">
            <Array as="points">
              <mxPoint x="185" y="780" />
              <mxPoint x="280" y="780" />
              <mxPoint x="280" y="699" />
            </Array>
          </mxGeometry>
        </mxCell>
        <mxCell id="j158cpId6UVIuKhUc8E8-11" value="ArchivoMesa" style="swimlane;fontStyle=1;align=center;verticalAlign=top;childLayout=stackLayout;horizontal=1;startSize=26;horizontalStack=0;resizeParent=1;resizeParentMax=0;resizeLast=0;collapsible=1;marginBottom=0;whiteSpace=wrap;html=1;" parent="WIyWlLk6GJQsqaUBKTNV-1" vertex="1">
          <mxGeometry x="90" y="800" width="190" height="186" as="geometry" />
        </mxCell>
        <mxCell id="j158cpId6UVIuKhUc8E8-13" value="" style="line;strokeWidth=1;fillColor=none;align=left;verticalAlign=middle;spacingTop=-1;spacingLeft=3;spacingRight=3;rotatable=0;labelPosition=right;points=[];portConstraint=eastwest;strokeColor=inherit;" parent="j158cpId6UVIuKhUc8E8-11" vertex="1">
          <mxGeometry y="26" width="190" height="8" as="geometry" />
        </mxCell>
        <mxCell id="j158cpId6UVIuKhUc8E8-14" value="+ registrar_mesa(Mesa *) : int" style="text;strokeColor=none;fillColor=none;align=left;verticalAlign=top;spacingLeft=4;spacingRight=4;overflow=hidden;rotatable=0;points=[[0,0.5],[1,0.5]];portConstraint=eastwest;whiteSpace=wrap;html=1;" parent="j158cpId6UVIuKhUc8E8-11" vertex="1">
          <mxGeometry y="34" width="190" height="26" as="geometry" />
        </mxCell>
        <mxCell id="dugiRGYuabXr7QlQK41O-0" value="+ consultar_mesas(Mesa *, int, int, int, int, int) : int" style="text;strokeColor=none;fillColor=none;align=left;verticalAlign=top;spacingLeft=4;spacingRight=4;overflow=hidden;rotatable=0;points=[[0,0.5],[1,0.5]];portConstraint=eastwest;whiteSpace=wrap;html=1;" vertex="1" parent="j158cpId6UVIuKhUc8E8-11">
          <mxGeometry y="60" width="190" height="40" as="geometry" />
        </mxCell>
        <mxCell id="j158cpId6UVIuKhUc8E8-15" value="+ listar_mesas(Mesa *, int) : int" style="text;strokeColor=none;fillColor=none;align=left;verticalAlign=top;spacingLeft=4;spacingRight=4;overflow=hidden;rotatable=0;points=[[0,0.5],[1,0.5]];portConstraint=eastwest;whiteSpace=wrap;html=1;" parent="j158cpId6UVIuKhUc8E8-11" vertex="1">
          <mxGeometry y="100" width="190" height="26" as="geometry" />
        </mxCell>
        <mxCell id="dugiRGYuabXr7QlQK41O-1" value="+ guardar_mesas(Mesa *, int) : int" style="text;strokeColor=none;fillColor=none;align=left;verticalAlign=top;spacingLeft=4;spacingRight=4;overflow=hidden;rotatable=0;points=[[0,0.5],[1,0.5]];portConstraint=eastwest;whiteSpace=wrap;html=1;" vertex="1" parent="j158cpId6UVIuKhUc8E8-11">
          <mxGeometry y="126" width="190" height="34" as="geometry" />
        </mxCell>
        <mxCell id="j158cpId6UVIuKhUc8E8-16" value="+ generar_mesas(int) : int" style="text;strokeColor=none;fillColor=none;align=left;verticalAlign=top;spacingLeft=4;spacingRight=4;overflow=hidden;rotatable=0;points=[[0,0.5],[1,0.5]];portConstraint=eastwest;whiteSpace=wrap;html=1;" parent="j158cpId6UVIuKhUc8E8-11" vertex="1">
          <mxGeometry y="160" width="190" height="26" as="geometry" />
        </mxCell>
        <mxCell id="j158cpId6UVIuKhUc8E8-17" value="ArchivoMozo" style="swimlane;fontStyle=1;align=center;verticalAlign=top;childLayout=stackLayout;horizontal=1;startSize=26;horizontalStack=0;resizeParent=1;resizeParentMax=0;resizeLast=0;collapsible=1;marginBottom=0;whiteSpace=wrap;html=1;" parent="WIyWlLk6GJQsqaUBKTNV-1" vertex="1">
          <mxGeometry x="312.5" y="800" width="190" height="226" as="geometry" />
        </mxCell>
        <mxCell id="j158cpId6UVIuKhUc8E8-18" value="" style="line;strokeWidth=1;fillColor=none;align=left;verticalAlign=middle;spacingTop=-1;spacingLeft=3;spacingRight=3;rotatable=0;labelPosition=right;points=[];portConstraint=eastwest;strokeColor=inherit;" parent="j158cpId6UVIuKhUc8E8-17" vertex="1">
          <mxGeometry y="26" width="190" height="8" as="geometry" />
        </mxCell>
        <mxCell id="j158cpId6UVIuKhUc8E8-19" value="+ registrar_mozo(Mozo *) : int" style="text;strokeColor=none;fillColor=none;align=left;verticalAlign=top;spacingLeft=4;spacingRight=4;overflow=hidden;rotatable=0;points=[[0,0.5],[1,0.5]];portConstraint=eastwest;whiteSpace=wrap;html=1;" parent="j158cpId6UVIuKhUc8E8-17" vertex="1">
          <mxGeometry y="34" width="190" height="26" as="geometry" />
        </mxCell>
        <mxCell id="dugiRGYuabXr7QlQK41O-2" value="+ consultar_mozos(Mozo *, int, int, int, int) : int" style="text;strokeColor=none;fillColor=none;align=left;verticalAlign=top;spacingLeft=4;spacingRight=4;overflow=hidden;rotatable=0;points=[[0,0.5],[1,0.5]];portConstraint=eastwest;whiteSpace=wrap;html=1;" vertex="1" parent="j158cpId6UVIuKhUc8E8-17">
          <mxGeometry y="60" width="190" height="40" as="geometry" />
        </mxCell>
        <mxCell id="dugiRGYuabXr7QlQK41O-3" value="+ consultar_mozos(Mozo *, int, int, std::string, std::string) : int" style="text;strokeColor=none;fillColor=none;align=left;verticalAlign=top;spacingLeft=4;spacingRight=4;overflow=hidden;rotatable=0;points=[[0,0.5],[1,0.5]];portConstraint=eastwest;whiteSpace=wrap;html=1;" vertex="1" parent="j158cpId6UVIuKhUc8E8-17">
          <mxGeometry y="100" width="190" height="40" as="geometry" />
        </mxCell>
        <mxCell id="j158cpId6UVIuKhUc8E8-20" value="+ listar_mozos(Mozo *, int) : int" style="text;strokeColor=none;fillColor=none;align=left;verticalAlign=top;spacingLeft=4;spacingRight=4;overflow=hidden;rotatable=0;points=[[0,0.5],[1,0.5]];portConstraint=eastwest;whiteSpace=wrap;html=1;" parent="j158cpId6UVIuKhUc8E8-17" vertex="1">
          <mxGeometry y="140" width="190" height="26" as="geometry" />
        </mxCell>
        <mxCell id="dugiRGYuabXr7QlQK41O-4" value="+ guardar_mozos(Mozo *, int) : int" style="text;strokeColor=none;fillColor=none;align=left;verticalAlign=top;spacingLeft=4;spacingRight=4;overflow=hidden;rotatable=0;points=[[0,0.5],[1,0.5]];portConstraint=eastwest;whiteSpace=wrap;html=1;" vertex="1" parent="j158cpId6UVIuKhUc8E8-17">
          <mxGeometry y="166" width="190" height="34" as="geometry" />
        </mxCell>
        <mxCell id="j158cpId6UVIuKhUc8E8-21" value="+ generar_mozos(int) : int" style="text;strokeColor=none;fillColor=none;align=left;verticalAlign=top;spacingLeft=4;spacingRight=4;overflow=hidden;rotatable=0;points=[[0,0.5],[1,0.5]];portConstraint=eastwest;whiteSpace=wrap;html=1;" parent="j158cpId6UVIuKhUc8E8-17" vertex="1">
          <mxGeometry y="200" width="190" height="26" as="geometry" />
        </mxCell>
        <mxCell id="j158cpId6UVIuKhUc8E8-22" value="ArchivoServicio" style="swimlane;fontStyle=1;align=center;verticalAlign=top;childLayout=stackLayout;horizontal=1;startSize=26;horizontalStack=0;resizeParent=1;resizeParentMax=0;resizeLast=0;collapsible=1;marginBottom=0;whiteSpace=wrap;html=1;" parent="WIyWlLk6GJQsqaUBKTNV-1" vertex="1">
          <mxGeometry x="535" y="800" width="205" height="236" as="geometry" />
        </mxCell>
        <mxCell id="j158cpId6UVIuKhUc8E8-23" value="" style="line;strokeWidth=1;fillColor=none;align=left;verticalAlign=middle;spacingTop=-1;spacingLeft=3;spacingRight=3;rotatable=0;labelPosition=right;points=[];portConstraint=eastwest;strokeColor=inherit;" parent="j158cpId6UVIuKhUc8E8-22" vertex="1">
          <mxGeometry y="26" width="205" height="8" as="geometry" />
        </mxCell>
        <mxCell id="j158cpId6UVIuKhUc8E8-24" value="+ registrar_servicio(Servicio *) : int" style="text;strokeColor=none;fillColor=none;align=left;verticalAlign=top;spacingLeft=4;spacingRight=4;overflow=hidden;rotatable=0;points=[[0,0.5],[1,0.5]];portConstraint=eastwest;whiteSpace=wrap;html=1;" parent="j158cpId6UVIuKhUc8E8-22" vertex="1">
          <mxGeometry y="34" width="205" height="26" as="geometry" />
        </mxCell>
        <mxCell id="dugiRGYuabXr7QlQK41O-5" value="+ consultar_servicios(Servicio *, int, int, int, int) : int" style="text;strokeColor=none;fillColor=none;align=left;verticalAlign=top;spacingLeft=4;spacingRight=4;overflow=hidden;rotatable=0;points=[[0,0.5],[1,0.5]];portConstraint=eastwest;whiteSpace=wrap;html=1;" vertex="1" parent="j158cpId6UVIuKhUc8E8-22">
          <mxGeometry y="60" width="205" height="40" as="geometry" />
        </mxCell>
        <mxCell id="dugiRGYuabXr7QlQK41O-6" value="+ consultar_servicios(Servicio *, int, int, float, float) : int" style="text;strokeColor=none;fillColor=none;align=left;verticalAlign=top;spacingLeft=4;spacingRight=4;overflow=hidden;rotatable=0;points=[[0,0.5],[1,0.5]];portConstraint=eastwest;whiteSpace=wrap;html=1;" vertex="1" parent="j158cpId6UVIuKhUc8E8-22">
          <mxGeometry y="100" width="205" height="40" as="geometry" />
        </mxCell>
        <mxCell id="j158cpId6UVIuKhUc8E8-25" value="+ listar_servicios(Servicio *, int) : int" style="text;strokeColor=none;fillColor=none;align=left;verticalAlign=top;spacingLeft=4;spacingRight=4;overflow=hidden;rotatable=0;points=[[0,0.5],[1,0.5]];portConstraint=eastwest;whiteSpace=wrap;html=1;" parent="j158cpId6UVIuKhUc8E8-22" vertex="1">
          <mxGeometry y="140" width="205" height="26" as="geometry" />
        </mxCell>
        <mxCell id="dugiRGYuabXr7QlQK41O-7" value="+ consultar_servicios(Servicio *, int, int, Fecha, Fecha) : int" style="text;strokeColor=none;fillColor=none;align=left;verticalAlign=top;spacingLeft=4;spacingRight=4;overflow=hidden;rotatable=0;points=[[0,0.5],[1,0.5]];portConstraint=eastwest;whiteSpace=wrap;html=1;" vertex="1" parent="j158cpId6UVIuKhUc8E8-22">
          <mxGeometry y="166" width="205" height="44" as="geometry" />
        </mxCell>
        <mxCell id="j158cpId6UVIuKhUc8E8-26" value="+ generar_servicios(int) : int" style="text;strokeColor=none;fillColor=none;align=left;verticalAlign=top;spacingLeft=4;spacingRight=4;overflow=hidden;rotatable=0;points=[[0,0.5],[1,0.5]];portConstraint=eastwest;whiteSpace=wrap;html=1;" parent="j158cpId6UVIuKhUc8E8-22" vertex="1">
          <mxGeometry y="210" width="205" height="26" as="geometry" />
        </mxCell>
        <mxCell id="j158cpId6UVIuKhUc8E8-30" style="edgeStyle=orthogonalEdgeStyle;rounded=0;orthogonalLoop=1;jettySize=auto;html=1;entryX=0.25;entryY=0;entryDx=0;entryDy=0;startArrow=block;startFill=0;startSize=14;endArrow=none;" parent="WIyWlLk6GJQsqaUBKTNV-1" source="j158cpId6UVIuKhUc8E8-4" target="j158cpId6UVIuKhUc8E8-22" edge="1">
          <mxGeometry relative="1" as="geometry" />
        </mxCell>
      </root>
    </mxGraphModel>
  </diagram>
</mxfile>
